<?xml version="1.0" encoding="utf-8" ?>
<svg baseProfile="full" height="3368" version="1.1" viewBox="0,0,4768,3368" width="4768" xmlns="http://www.w3.org/2000/svg" xmlns:ev="http://www.w3.org/2001/xml-events" xmlns:xlink="http://www.w3.org/1999/xlink"><defs /><path d="M 81 80 L 81 3289 L 4690 3289 L 4690 80 Z" fill="white" id="region_000" stroke="black" stroke-width="0.5" /><path d="M 1364 114 L 1502 134 L 1528 228 L 1578 259 L 1727 240 L 1791 387 L 1897 491 L 1982 510 L 2091 456 L 2171 496 L 2340 502 L 2592 612 L 2871 930 L 2938 1087 L 3011 1078 L 2984 1021 L 3022 947 L 2947 684 L 3023 617 L 3038 742 L 3120 666 L 2938 482 L 2861 483 L 2851 452 L 2919 388 L 3078 492 L 3065 423 L 3156 379 L 3202 279 L 3640 450 L 3864 596 L 3924 741 L 4033 796 L 4025 887 L 4275 847 L 4461 987 L 4434 1037 L 4375 1034 L 4341 956 L 4261 904 L 4280 932 L 4068 1069 L 4098 1131 L 4007 1182 L 4013 1146 L 3969 1127 L 3982 1204 L 3873 1270 L 3877 1215 L 3777 1225 L 3687 1308 L 3730 1309 L 3706 1368 L 3794 1408 L 3856 1384 L 3834 1433 L 3893 1381 L 3871 1440 L 3905 1409 L 3901 1471 L 3927 1418 L 3908 1487 L 3954 1428 L 3976 1444 L 3872 1649 L 3800 1591 L 3692 1605 L 3695 1640 L 3758 1645 L 3674 1653 L 3654 1691 L 3711 1707 L 3699 1766 L 3796 1739 L 3753 1786 L 3815 1825 L 3790 1903 L 3817 1998 L 3654 2062 L 3703 2115 L 3745 2073 L 3835 2083 L 3836 2112 L 3778 2134 L 3760 2193 L 3725 2175 L 3745 2216 L 3699 2242 L 3841 2337 L 3845 2242 L 3890 2237 L 3922 2265 L 3885 2314 L 3927 2404 L 4052 2452 L 4166 2441 L 4238 2505 L 4149 2584 L 4094 2545 L 4157 2650 L 4080 2678 L 4133 2744 L 3962 2766 L 3812 2906 L 3840 3041 L 3928 3086 L 3913 3159 L 3869 3121 L 3818 3170 L 3792 3143 L 3768 3172 L 3614 3155 L 3634 3112 L 3591 3071 L 3645 3053 L 3603 3029 L 3690 3023 L 3638 3005 L 3630 2867 L 3551 2842 L 3604 2758 L 3661 2772 L 3689 2726 L 3561 2687 L 3553 2589 L 3405 2431 L 3413 2275 L 3333 2268 L 3327 2214 L 3269 2185 L 3215 2225 L 3027 2195 L 3017 2248 L 2975 2251 L 2998 2209 L 2963 2167 L 2799 2132 L 2287 2168 L 1710 2376 L 1418 2636 L 1384 2928 L 1422 2980 L 1413 3086 L 1503 3152 L 1380 3090 L 1308 3100 L 1255 3155 L 889 3098 L 874 2958 L 705 2812 L 631 2520 L 683 2375 L 775 2303 L 838 2066 L 792 1987 L 749 1681 L 644 1644 L 360 1654 L 424 1539 L 406 1479 L 457 1385 L 688 1255 L 874 1201 L 966 1039 L 1136 1026 L 1272 888 L 1277 810 L 1344 737 L 1318 588 L 1368 428 L 1307 188 Z" fill="white" id="region_001" stroke="black" stroke-width="0.5" /><path d="M 4668 206 L 4670 235 L 4520 216 L 4523 252 L 4505 220 L 4384 304 L 4479 394 L 4474 320 L 4520 263 L 4525 288 L 4644 269 L 4643 319 L 4587 342 L 4678 327 L 4678 1914 L 4602 1977 L 4675 2042 L 4567 2092 L 4548 2143 L 4388 2148 L 4678 2269 L 4678 2767 L 4621 2794 L 4564 2905 L 4570 3077 L 4620 3096 L 4675 3213 L 4645 3211 L 4638 3273 L 1189 3277 L 1313 3102 L 1508 3153 L 1420 3086 L 1426 2981 L 1389 2928 L 1421 2639 L 1713 2379 L 2311 2168 L 2778 2137 L 2956 2167 L 2994 2209 L 2974 2255 L 3020 2252 L 3031 2198 L 3212 2229 L 3264 2188 L 3321 2213 L 3330 2271 L 3410 2278 L 3402 2434 L 3550 2592 L 3557 2689 L 3686 2729 L 3656 2770 L 3600 2756 L 3547 2842 L 3629 2874 L 3633 3007 L 3683 3025 L 3600 3026 L 3639 3052 L 3587 3069 L 3629 3113 L 3601 3145 L 3686 3180 L 3791 3147 L 3821 3177 L 3867 3124 L 3915 3163 L 3935 3092 L 3844 3040 L 3820 2899 L 3969 2767 L 4135 2748 L 4084 2678 L 4156 2679 L 4157 2625 L 4099 2547 L 4153 2587 L 4244 2507 L 4174 2436 L 4071 2451 L 3931 2402 L 3889 2312 L 3927 2266 L 3891 2233 L 3842 2238 L 3838 2334 L 3776 2288 L 3821 2229 L 3794 2196 L 3763 2251 L 3703 2241 L 3749 2218 L 3730 2177 L 3763 2196 L 3797 2120 L 3840 2115 L 3840 2074 L 3744 2068 L 3704 2111 L 3658 2061 L 3821 2002 L 3793 1900 L 3819 1823 L 3759 1787 L 3803 1739 L 3768 1720 L 3702 1763 L 3713 1702 L 3658 1692 L 3676 1658 L 3761 1649 L 3693 1610 L 3798 1595 L 3873 1655 L 3980 1441 L 3952 1423 L 3913 1484 L 3932 1415 L 3899 1466 L 3909 1407 L 3876 1437 L 3898 1379 L 3835 1427 L 3862 1382 L 3793 1403 L 3710 1364 L 3734 1309 L 3699 1298 L 3776 1229 L 3881 1221 L 3871 1276 L 3986 1204 L 3966 1140 L 4008 1151 L 4007 1187 L 4103 1133 L 4073 1071 L 4284 933 L 4264 907 L 4374 1039 L 4436 1042 L 4466 984 L 4432 953 L 4526 872 L 4515 845 L 4471 864 L 4425 691 L 4311 741 L 4252 714 L 4272 308 L 4340 182 L 4358 254 L 4435 190 L 4431 135 L 4449 218 L 4391 293 L 4520 201 Z" fill="white" id="region_002" stroke="black" stroke-width="0.5" /><path d="M 1360 110 L 1349 131 L 1314 161 L 1303 193 L 1333 274 L 1332 385 L 1364 427 L 1348 441 L 1364 499 L 1314 590 L 1347 659 L 1340 743 L 1274 808 L 1274 876 L 1253 908 L 1139 1021 L 1039 1042 L 986 1032 L 964 1036 L 938 1105 L 872 1198 L 691 1250 L 660 1280 L 572 1317 L 453 1384 L 403 1476 L 420 1539 L 403 1547 L 363 1597 L 353 1655 L 212 1733 L 155 1687 L 93 1688 L 92 93 L 1333 92 Z" fill="white" id="region_003" stroke="black" stroke-width="0.5" /><path d="M 1340 93 L 4677 92 L 4678 230 L 4668 201 L 4520 196 L 4392 288 L 4384 278 L 4453 220 L 4446 171 L 4461 152 L 4428 128 L 4431 188 L 4359 248 L 4341 176 L 4305 215 L 4292 292 L 4271 298 L 4232 569 L 4272 701 L 4245 712 L 4311 747 L 4354 702 L 4422 695 L 4433 727 L 4409 742 L 4469 870 L 4511 850 L 4521 870 L 4436 942 L 4279 844 L 4139 848 L 4032 885 L 4014 859 L 4037 795 L 3927 739 L 3867 594 L 3801 570 L 3654 453 L 3437 390 L 3370 333 L 3199 276 L 3189 326 L 3155 371 L 3062 421 L 3076 489 L 3032 482 L 2951 400 L 2912 385 L 2848 450 L 2857 484 L 2928 479 L 3045 585 L 3059 627 L 3115 662 L 3036 739 L 3012 695 L 3028 615 L 2980 624 L 2941 689 L 2940 741 L 2984 765 L 3018 951 L 2981 1019 L 3008 1076 L 2936 1081 L 2916 1006 L 2873 979 L 2874 928 L 2594 609 L 2342 499 L 2169 492 L 2089 452 L 2008 469 L 1979 507 L 1899 488 L 1789 378 L 1733 240 L 1680 219 L 1580 256 L 1531 226 L 1504 131 L 1442 135 Z" fill="white" id="region_004" stroke="black" stroke-width="0.5" /><path d="M 93 1692 L 153 1690 L 214 1736 L 355 1657 L 510 1660 L 634 1647 L 697 1654 L 742 1674 L 752 1786 L 800 1907 L 789 1989 L 832 2074 L 771 2298 L 732 2311 L 711 2330 L 630 2461 L 631 2550 L 660 2690 L 691 2787 L 724 2853 L 760 2886 L 864 2949 L 889 3103 L 984 3111 L 1243 3160 L 1235 3214 L 1184 3278 L 92 3277 Z" fill="white" id="region_005" stroke="black" stroke-width="0.5" /><path d="M 169 168 L 169 580 L 993 580 L 993 168 Z" fill="white" id="region_006" stroke="black" stroke-width="0.5" /><path d="M 174 175 L 986 174 L 987 574 L 175 575 Z" fill="white" id="region_007" stroke="black" stroke-width="0.5" /><path d="M 194 194 L 194 555 L 967 555 L 967 194 Z" fill="white" id="region_008" stroke="black" stroke-width="0.5" /><path d="M 200 200 L 961 199 L 962 548 L 201 549 Z" fill="white" id="region_009" stroke="black" stroke-width="0.5" /><path d="M 4676 2773 L 4678 2774 L 4677 3206 L 4670 3197 L 4665 3194 L 4662 3190 L 4662 3177 L 4657 3158 L 4646 3138 L 4629 3119 L 4625 3110 L 4625 3098 L 4623 3093 L 4617 3088 L 4609 3085 L 4578 3079 L 4573 3074 L 4573 3065 L 4592 3020 L 4592 3008 L 4581 2993 L 4575 2977 L 4572 2951 L 4571 2917 L 4568 2908 L 4569 2897 L 4587 2862 L 4589 2854 L 4593 2847 L 4610 2831 L 4617 2822 L 4620 2816 L 4623 2798 L 4629 2792 L 4636 2788 L 4658 2781 Z" fill="white" id="region_010" stroke="black" stroke-width="0.5" /><path d="M 4678 2261 L 4676 2262 L 4665 2253 L 4643 2239 L 4602 2220 L 4581 2213 L 4470 2182 L 4433 2170 L 4413 2161 L 4401 2153 L 4400 2151 L 4401 2150 L 4422 2150 L 4423 2151 L 4441 2151 L 4442 2152 L 4496 2153 L 4497 2152 L 4527 2151 L 4551 2146 L 4562 2140 L 4566 2134 L 4567 2130 L 4566 2114 L 4563 2102 L 4571 2094 L 4582 2089 L 4587 2089 L 4594 2095 L 4596 2095 L 4677 2046 L 4678 2047 Z" fill="white" id="region_011" stroke="black" stroke-width="0.5" /><path d="M 4268 417 L 4264 432 L 4264 437 L 4261 448 L 4261 453 L 4258 464 L 4257 475 L 4255 481 L 4255 486 L 4250 511 L 4247 539 L 4246 540 L 4246 560 L 4253 589 L 4274 646 L 4286 653 L 4296 656 L 4308 655 L 4333 647 L 4367 649 L 4368 650 L 4386 651 L 4387 652 L 4407 654 L 4427 635 L 4428 632 L 4393 604 L 4389 602 L 4382 602 L 4371 608 L 4352 624 L 4346 621 L 4346 619 L 4377 581 L 4378 578 L 4350 523 L 4326 487 L 4313 470 L 4318 464 L 4315 457 L 4309 434 L 4306 429 L 4301 424 L 4290 417 Z" fill="white" id="region_012" stroke="black" stroke-width="0.5" /><path d="M 4271 421 L 4290 421 L 4304 433 L 4313 461 L 4313 463 L 4308 466 L 4307 468 L 4328 497 L 4349 529 L 4356 542 L 4360 553 L 4373 577 L 4371 582 L 4341 619 L 4341 623 L 4352 629 L 4374 611 L 4380 607 L 4386 605 L 4396 611 L 4422 632 L 4422 634 L 4405 650 L 4336 643 L 4322 646 L 4304 652 L 4295 652 L 4289 650 L 4277 643 L 4257 589 L 4257 586 L 4251 567 L 4250 555 L 4249 554 L 4250 537 L 4251 536 L 4254 509 L 4260 479 L 4260 474 L 4262 468 L 4262 463 L 4264 457 L 4264 452 L 4267 441 L 4267 436 Z" fill="white" id="region_013" stroke="black" stroke-width="0.5" /><path d="M 4183 1121 L 4178 1122 L 4171 1127 L 4166 1129 L 4159 1134 L 4154 1136 L 4147 1141 L 4142 1143 L 4135 1148 L 4130 1150 L 4123 1155 L 4118 1157 L 4111 1162 L 4106 1164 L 4104 1166 L 4094 1171 L 4087 1176 L 4082 1178 L 4075 1183 L 4070 1185 L 4063 1190 L 4058 1192 L 4051 1197 L 4039 1203 L 4037 1205 L 4027 1210 L 4020 1215 L 4020 1218 L 4027 1227 L 4040 1240 L 4041 1240 L 4049 1249 L 4050 1252 L 4058 1264 L 4060 1269 L 4062 1271 L 4065 1278 L 4067 1280 L 4077 1300 L 4080 1300 L 4094 1293 L 4096 1291 L 4147 1265 L 4149 1263 L 4164 1256 L 4166 1254 L 4181 1247 L 4183 1245 L 4200 1237 L 4202 1235 L 4217 1228 L 4219 1226 L 4219 1223 L 4217 1221 L 4202 1192 L 4200 1190 L 4196 1181 L 4194 1179 L 4190 1170 L 4188 1168 L 4188 1166 L 4190 1164 L 4202 1158 L 4202 1155 L 4199 1151 L 4195 1142 L 4193 1140 Z" fill="white" id="region_014" stroke="black" stroke-width="0.5" /><path d="M 4677 248 L 4672 323 L 4596 337 L 4589 337 L 4587 330 L 4592 328 L 4646 323 L 4647 264 L 4529 284 L 4530 260 L 4515 260 L 4514 301 L 4478 305 L 4469 321 L 4469 324 L 4485 343 L 4491 360 L 4492 369 L 4481 388 L 4446 346 L 4426 356 L 4389 307 L 4391 304 L 4398 302 L 4405 313 L 4410 314 L 4478 268 L 4479 260 L 4477 246 L 4504 226 L 4507 229 L 4513 255 L 4528 255 L 4523 224 L 4524 219 L 4561 215 L 4567 245 L 4575 245 L 4589 242 L 4591 212 L 4603 210 L 4605 224 L 4607 226 L 4651 225 Z" fill="white" id="region_015" stroke="black" stroke-width="0.5" /><path d="M 4181 1126 L 4184 1132 L 4186 1134 L 4189 1141 L 4191 1143 L 4195 1152 L 4197 1154 L 4197 1156 L 4184 1163 L 4183 1164 L 4183 1167 L 4186 1171 L 4190 1180 L 4192 1182 L 4207 1211 L 4209 1213 L 4214 1224 L 4212 1226 L 4184 1240 L 4182 1242 L 4167 1249 L 4165 1251 L 4148 1259 L 4146 1261 L 4142 1263 L 4138 1262 L 4138 1264 L 4136 1266 L 4131 1268 L 4129 1270 L 4080 1295 L 4077 1292 L 4071 1279 L 4069 1277 L 4061 1261 L 4059 1259 L 4058 1256 L 4056 1254 L 4055 1251 L 4049 1242 L 4030 1224 L 4025 1217 L 4030 1213 L 4040 1208 L 4042 1206 L 4052 1201 L 4054 1199 L 4064 1194 L 4066 1192 L 4076 1187 L 4078 1185 L 4088 1180 L 4092 1177 L 4095 1178 L 4095 1176 L 4097 1174 L 4107 1169 L 4114 1164 L 4119 1162 L 4126 1157 L 4131 1155 L 4138 1150 L 4143 1148 L 4150 1143 L 4155 1141 L 4162 1136 L 4167 1134 L 4174 1129 Z" fill="white" id="region_016" stroke="black" stroke-width="0.5" /><path d="M 4387 1068 L 4382 1065 L 4376 1064 L 4375 1063 L 4369 1062 L 4368 1061 L 4364 1061 L 4363 1060 L 4359 1060 L 4358 1059 L 4352 1059 L 4351 1058 L 4343 1058 L 4342 1057 L 4324 1057 L 4323 1058 L 4314 1058 L 4313 1059 L 4308 1059 L 4307 1060 L 4300 1061 L 4298 1063 L 4291 1066 L 4289 1068 L 4280 1072 L 4278 1074 L 4258 1084 L 4256 1086 L 4238 1095 L 4236 1097 L 4227 1101 L 4225 1103 L 4218 1106 L 4216 1108 L 4196 1118 L 4194 1120 L 4191 1121 L 4190 1122 L 4190 1124 L 4193 1129 L 4202 1140 L 4204 1144 L 4210 1151 L 4212 1155 L 4218 1162 L 4220 1166 L 4229 1177 L 4231 1181 L 4235 1181 L 4243 1177 L 4245 1175 L 4254 1171 L 4256 1169 L 4267 1164 L 4269 1162 L 4280 1157 L 4282 1155 L 4291 1151 L 4295 1148 L 4292 1141 L 4290 1139 L 4289 1136 L 4285 1130 L 4286 1128 L 4294 1124 L 4298 1124 L 4310 1141 L 4312 1141 L 4391 1101 L 4391 1098 L 4387 1092 L 4380 1078 L 4380 1076 L 4387 1069 Z" fill="white" id="region_017" stroke="black" stroke-width="0.5" /><path d="M 4379 1069 L 4379 1071 L 4376 1074 L 4375 1074 L 4375 1077 L 4382 1091 L 4384 1093 L 4386 1097 L 4386 1099 L 4385 1100 L 4313 1136 L 4312 1136 L 4309 1133 L 4309 1132 L 4306 1129 L 4304 1125 L 4299 1119 L 4296 1119 L 4287 1124 L 4285 1124 L 4280 1127 L 4280 1130 L 4282 1132 L 4287 1142 L 4289 1144 L 4289 1147 L 4281 1151 L 4279 1153 L 4268 1158 L 4266 1160 L 4257 1164 L 4255 1166 L 4244 1171 L 4242 1173 L 4236 1176 L 4233 1176 L 4231 1174 L 4226 1166 L 4220 1159 L 4218 1155 L 4215 1152 L 4215 1151 L 4209 1144 L 4207 1140 L 4201 1133 L 4199 1129 L 4196 1126 L 4196 1123 L 4197 1122 L 4206 1118 L 4208 1116 L 4226 1107 L 4228 1105 L 4237 1101 L 4239 1099 L 4248 1095 L 4250 1093 L 4268 1084 L 4270 1082 L 4279 1078 L 4281 1076 L 4290 1072 L 4292 1070 L 4299 1067 L 4303 1064 L 4311 1063 L 4312 1062 L 4319 1062 L 4320 1061 L 4346 1061 L 4347 1062 L 4354 1062 L 4355 1063 L 4364 1064 L 4365 1065 L 4372 1066 Z" fill="white" id="region_018" stroke="black" stroke-width="0.5" /><path d="M 3891 1291 L 3891 1294 L 3892 1295 L 3892 1298 L 3893 1299 L 3893 1302 L 3894 1303 L 3894 1306 L 3895 1307 L 3895 1313 L 3893 1315 L 3893 1319 L 3907 1335 L 3925 1344 L 3927 1346 L 3940 1352 L 3942 1354 L 3955 1360 L 3957 1362 L 3972 1369 L 3974 1371 L 3987 1377 L 3989 1379 L 3999 1384 L 4001 1384 L 4004 1381 L 4004 1380 L 4009 1375 L 4009 1374 L 4024 1356 L 4024 1350 L 4022 1346 L 4022 1343 L 4021 1342 L 4021 1339 L 4020 1338 L 4020 1335 L 4019 1334 L 4019 1331 L 4018 1330 L 3999 1330 L 3987 1336 L 3985 1336 L 3984 1337 L 3982 1337 L 3975 1340 L 3969 1340 L 3962 1335 L 3961 1335 L 3955 1329 L 3953 1328 L 3953 1327 L 3955 1325 L 3979 1313 L 3981 1311 L 3996 1304 L 3996 1281 L 3997 1280 L 3997 1272 L 3994 1266 L 3992 1264 L 3986 1251 L 3981 1251 L 3974 1255 L 3972 1255 L 3967 1258 L 3965 1258 L 3958 1262 L 3956 1262 L 3951 1265 L 3949 1265 L 3944 1268 L 3942 1268 L 3935 1272 L 3933 1272 L 3928 1275 L 3926 1275 L 3919 1279 L 3917 1279 L 3912 1282 L 3910 1282 L 3903 1286 L 3901 1286 Z" fill="white" id="region_019" stroke="black" stroke-width="0.5" /><path d="M 4373 312 L 4348 325 L 4349 329 L 4354 335 L 4361 333 L 4366 330 L 4369 330 L 4372 333 L 4375 338 L 4358 351 L 4354 353 L 4347 359 L 4343 361 L 4339 365 L 4339 367 L 4338 368 L 4338 374 L 4337 375 L 4337 383 L 4336 384 L 4336 396 L 4337 397 L 4337 400 L 4342 409 L 4347 414 L 4357 411 L 4363 408 L 4365 408 L 4371 419 L 4371 421 L 4376 430 L 4376 432 L 4382 443 L 4382 445 L 4389 458 L 4389 460 L 4400 482 L 4405 488 L 4405 489 L 4417 501 L 4418 501 L 4426 508 L 4429 508 L 4450 463 L 4447 458 L 4426 431 L 4424 427 L 4418 420 L 4416 416 L 4413 413 L 4411 409 L 4408 406 L 4400 394 L 4388 369 L 4391 366 L 4406 357 L 4406 353 L 4398 343 L 4394 336 L 4391 333 L 4377 312 Z" fill="white" id="region_020" stroke="black" stroke-width="0.5" /><path d="M 3895 1294 L 3897 1292 L 3899 1292 L 3906 1288 L 3908 1288 L 3922 1281 L 3924 1281 L 3929 1278 L 3931 1278 L 3945 1271 L 3947 1271 L 3952 1268 L 3954 1268 L 3961 1264 L 3963 1264 L 3968 1261 L 3970 1261 L 3977 1257 L 3979 1257 L 3983 1255 L 3993 1273 L 3993 1300 L 3991 1302 L 3982 1306 L 3980 1308 L 3948 1324 L 3947 1325 L 3947 1328 L 3961 1340 L 3967 1343 L 3969 1343 L 3970 1344 L 3978 1343 L 3979 1342 L 3981 1342 L 3982 1341 L 3990 1339 L 4000 1334 L 4015 1334 L 4016 1335 L 4016 1338 L 4018 1342 L 4018 1345 L 4019 1346 L 4019 1349 L 4020 1350 L 4020 1354 L 4019 1356 L 4015 1360 L 4015 1361 L 4011 1365 L 4011 1366 L 4002 1376 L 4002 1377 L 4000 1379 L 3998 1379 L 3988 1374 L 3986 1372 L 3973 1366 L 3971 1364 L 3958 1358 L 3956 1356 L 3943 1350 L 3941 1348 L 3928 1342 L 3926 1340 L 3911 1333 L 3905 1327 L 3905 1326 L 3898 1318 L 3898 1315 L 3899 1314 L 3899 1308 L 3898 1307 L 3898 1304 L 3897 1303 L 3897 1300 L 3896 1299 L 3896 1296 Z" fill="white" id="region_021" stroke="black" stroke-width="0.5" /><path d="M 4372 317 L 4375 317 L 4377 319 L 4386 333 L 4389 336 L 4398 350 L 4401 353 L 4401 355 L 4385 365 L 4383 367 L 4383 369 L 4387 377 L 4389 379 L 4392 385 L 4392 387 L 4399 400 L 4406 409 L 4408 413 L 4411 416 L 4413 420 L 4416 423 L 4418 427 L 4421 430 L 4421 431 L 4424 434 L 4424 435 L 4427 438 L 4432 446 L 4435 449 L 4435 450 L 4438 453 L 4438 454 L 4445 463 L 4445 465 L 4443 468 L 4443 470 L 4427 502 L 4425 502 L 4421 498 L 4420 498 L 4407 485 L 4407 484 L 4403 479 L 4391 455 L 4391 453 L 4384 440 L 4384 438 L 4378 427 L 4378 425 L 4373 416 L 4373 414 L 4369 407 L 4369 405 L 4367 403 L 4366 404 L 4363 404 L 4362 405 L 4354 407 L 4351 409 L 4348 409 L 4343 403 L 4340 396 L 4340 380 L 4341 379 L 4342 367 L 4347 364 L 4354 358 L 4358 356 L 4361 353 L 4365 351 L 4372 345 L 4376 343 L 4380 339 L 4380 337 L 4377 334 L 4377 333 L 4374 330 L 4371 325 L 4365 326 L 4358 330 L 4355 330 L 4354 329 L 4354 326 L 4355 325 L 4357 325 Z" fill="white" id="region_022" stroke="black" stroke-width="0.5" /><path d="M 4582 478 L 4580 478 L 4579 479 L 4578 479 L 4575 482 L 4574 482 L 4572 484 L 4571 484 L 4569 486 L 4568 486 L 4566 488 L 4565 488 L 4563 490 L 4562 490 L 4560 492 L 4559 492 L 4556 495 L 4555 495 L 4553 497 L 4552 497 L 4550 499 L 4549 499 L 4547 501 L 4546 501 L 4544 503 L 4543 503 L 4540 506 L 4539 506 L 4537 508 L 4536 508 L 4534 510 L 4533 510 L 4531 512 L 4530 512 L 4528 514 L 4527 514 L 4525 516 L 4524 516 L 4521 519 L 4520 519 L 4518 521 L 4517 521 L 4512 525 L 4512 527 L 4514 529 L 4514 530 L 4516 532 L 4516 533 L 4518 535 L 4518 536 L 4520 538 L 4520 539 L 4522 541 L 4522 542 L 4524 544 L 4524 545 L 4526 547 L 4526 548 L 4528 550 L 4528 551 L 4530 553 L 4530 554 L 4532 556 L 4532 557 L 4534 559 L 4534 560 L 4536 562 L 4536 563 L 4538 565 L 4538 566 L 4540 568 L 4540 569 L 4542 571 L 4542 572 L 4544 574 L 4544 575 L 4546 577 L 4546 578 L 4548 580 L 4548 581 L 4549 582 L 4551 582 L 4552 581 L 4553 581 L 4555 579 L 4556 579 L 4558 577 L 4559 577 L 4561 575 L 4562 575 L 4564 573 L 4565 573 L 4567 571 L 4568 571 L 4570 569 L 4571 569 L 4573 567 L 4574 567 L 4576 565 L 4577 565 L 4579 563 L 4580 563 L 4582 561 L 4583 561 L 4585 559 L 4586 559 L 4588 557 L 4589 557 L 4591 555 L 4592 555 L 4594 553 L 4595 553 L 4597 551 L 4598 551 L 4600 549 L 4601 549 L 4603 547 L 4604 547 L 4606 545 L 4607 545 L 4609 543 L 4610 543 L 4612 541 L 4613 541 L 4614 540 L 4614 539 L 4613 538 L 4613 536 L 4611 534 L 4611 533 L 4610 532 L 4610 531 L 4609 530 L 4609 529 L 4608 528 L 4608 527 L 4607 526 L 4607 525 L 4606 524 L 4606 523 L 4605 522 L 4605 521 L 4604 520 L 4604 519 L 4603 518 L 4603 517 L 4602 516 L 4601 513 L 4599 511 L 4599 510 L 4598 509 L 4598 508 L 4597 507 L 4597 506 L 4596 505 L 4596 504 L 4595 503 L 4595 502 L 4594 501 L 4594 500 L 4593 499 L 4593 498 L 4592 497 L 4592 496 L 4591 495 L 4591 494 L 4590 493 L 4590 492 L 4589 491 L 4588 488 L 4586 486 L 4586 485 L 4585 484 L 4585 483 L 4584 482 L 4584 481 Z" fill="white" id="region_023" stroke="black" stroke-width="0.5" /><path d="M 4663 1905 L 4665 1905 L 4666 1906 L 4667 1909 L 4669 1911 L 4669 1912 L 4670 1913 L 4671 1916 L 4673 1918 L 4674 1921 L 4676 1923 L 4676 1924 L 4678 1927 L 4678 2032 L 4677 2033 L 4676 2033 L 4674 2031 L 4674 2030 L 4673 2029 L 4672 2026 L 4670 2024 L 4670 2023 L 4669 2022 L 4668 2019 L 4666 2017 L 4665 2014 L 4663 2012 L 4661 2012 L 4660 2013 L 4658 2013 L 4657 2014 L 4655 2014 L 4652 2016 L 4650 2016 L 4649 2017 L 4647 2017 L 4644 2019 L 4642 2019 L 4641 2020 L 4639 2020 L 4636 2022 L 4634 2022 L 4633 2023 L 4631 2023 L 4629 2021 L 4628 2018 L 4626 2016 L 4626 2015 L 4625 2014 L 4624 2011 L 4622 2009 L 4622 2008 L 4621 2007 L 4621 2006 L 4620 2005 L 4619 2002 L 4617 2000 L 4617 1999 L 4616 1998 L 4615 1995 L 4613 1993 L 4613 1992 L 4612 1991 L 4611 1988 L 4609 1986 L 4609 1985 L 4606 1980 L 4606 1979 L 4608 1977 L 4608 1976 L 4611 1973 L 4611 1972 L 4615 1968 L 4615 1967 L 4618 1964 L 4618 1963 L 4621 1960 L 4621 1959 L 4625 1955 L 4625 1954 L 4628 1951 L 4628 1950 L 4631 1947 L 4631 1946 L 4635 1942 L 4635 1941 L 4638 1938 L 4638 1937 L 4641 1934 L 4641 1933 L 4645 1929 L 4645 1928 L 4648 1925 L 4648 1924 L 4651 1921 L 4651 1920 L 4655 1916 L 4655 1915 L 4658 1912 L 4658 1911 L 4661 1908 L 4661 1907 Z" fill="white" id="region_024" stroke="black" stroke-width="0.5" /><path d="M 4672 334 L 4670 334 L 4665 338 L 4664 338 L 4659 341 L 4655 341 L 4654 342 L 4640 342 L 4639 343 L 4613 343 L 4612 344 L 4611 344 L 4611 368 L 4612 369 L 4612 381 L 4613 382 L 4613 389 L 4614 390 L 4614 394 L 4615 395 L 4615 399 L 4616 400 L 4616 402 L 4617 403 L 4618 406 L 4621 409 L 4624 408 L 4627 405 L 4628 405 L 4632 401 L 4633 401 L 4634 402 L 4634 403 L 4636 405 L 4636 407 L 4635 408 L 4634 408 L 4632 410 L 4631 410 L 4629 412 L 4628 412 L 4626 414 L 4626 417 L 4627 418 L 4627 419 L 4629 421 L 4629 422 L 4631 424 L 4632 427 L 4636 432 L 4637 435 L 4639 437 L 4639 438 L 4641 440 L 4641 441 L 4645 446 L 4645 447 L 4649 451 L 4655 451 L 4656 450 L 4657 450 L 4665 442 L 4665 441 L 4666 440 L 4666 438 L 4667 437 L 4667 423 L 4668 422 L 4668 407 L 4669 406 L 4669 391 L 4670 390 L 4670 375 L 4671 374 L 4671 359 L 4672 358 L 4672 342 L 4673 341 L 4673 335 Z" fill="white" id="region_025" stroke="black" stroke-width="0.5" /><path d="M 4290 939 L 4288 939 L 4278 949 L 4278 950 L 4262 966 L 4262 967 L 4247 982 L 4247 983 L 4246 984 L 4246 986 L 4248 989 L 4248 991 L 4250 994 L 4250 996 L 4252 999 L 4252 1001 L 4253 1002 L 4253 1003 L 4255 1006 L 4255 1008 L 4257 1011 L 4257 1013 L 4259 1016 L 4259 1018 L 4261 1021 L 4261 1023 L 4263 1026 L 4263 1028 L 4264 1029 L 4264 1030 L 4266 1033 L 4266 1035 L 4268 1038 L 4268 1040 L 4270 1043 L 4270 1045 L 4272 1047 L 4273 1047 L 4274 1046 L 4276 1046 L 4277 1045 L 4278 1045 L 4281 1043 L 4283 1043 L 4284 1042 L 4285 1042 L 4288 1040 L 4290 1040 L 4293 1038 L 4295 1038 L 4296 1037 L 4297 1037 L 4300 1035 L 4302 1035 L 4305 1033 L 4307 1033 L 4308 1032 L 4309 1032 L 4312 1030 L 4314 1030 L 4315 1029 L 4316 1029 L 4317 1028 L 4318 1028 L 4320 1026 L 4320 1025 L 4328 1017 L 4328 1014 L 4327 1013 L 4327 1012 L 4326 1011 L 4326 1010 L 4325 1009 L 4325 1008 L 4324 1007 L 4324 1006 L 4323 1005 L 4323 1004 L 4322 1003 L 4322 1002 L 4321 1001 L 4321 1000 L 4320 999 L 4320 998 L 4319 997 L 4319 996 L 4318 995 L 4318 994 L 4317 993 L 4317 992 L 4316 991 L 4316 990 L 4315 989 L 4315 988 L 4314 987 L 4314 986 L 4313 985 L 4313 984 L 4312 983 L 4312 982 L 4311 981 L 4311 980 L 4310 979 L 4310 978 L 4309 977 L 4309 976 L 4308 975 L 4308 974 L 4307 973 L 4307 972 L 4306 971 L 4306 970 L 4305 969 L 4305 968 L 4304 967 L 4304 966 L 4303 965 L 4303 964 L 4302 963 L 4302 962 L 4301 961 L 4301 960 L 4300 959 L 4300 958 L 4298 955 L 4298 953 L 4297 952 L 4297 951 L 4296 950 L 4296 949 L 4295 948 L 4295 947 L 4294 946 L 4294 945 L 4293 944 L 4293 943 L 4292 942 L 4292 941 Z" fill="white" id="region_026" stroke="black" stroke-width="0.5" /><path d="M 4568 463 L 4567 463 L 4564 460 L 4563 460 L 4559 456 L 4558 456 L 4555 453 L 4554 453 L 4551 450 L 4550 450 L 4547 447 L 4546 447 L 4539 441 L 4536 441 L 4534 443 L 4533 443 L 4530 446 L 4529 446 L 4527 448 L 4526 448 L 4523 451 L 4522 451 L 4519 454 L 4518 454 L 4516 456 L 4515 456 L 4508 462 L 4507 462 L 4505 464 L 4504 464 L 4501 467 L 4500 467 L 4498 469 L 4497 469 L 4490 475 L 4489 475 L 4487 477 L 4486 477 L 4483 480 L 4482 480 L 4479 483 L 4478 483 L 4474 487 L 4474 488 L 4473 489 L 4472 492 L 4470 494 L 4470 495 L 4469 496 L 4469 497 L 4468 498 L 4467 501 L 4465 503 L 4465 504 L 4464 505 L 4464 506 L 4463 507 L 4462 510 L 4460 512 L 4460 513 L 4459 514 L 4459 515 L 4458 516 L 4457 519 L 4455 521 L 4455 522 L 4454 523 L 4454 524 L 4453 525 L 4452 528 L 4450 530 L 4450 531 L 4449 532 L 4449 536 L 4450 536 L 4452 538 L 4453 538 L 4455 540 L 4458 541 L 4460 543 L 4461 543 L 4463 545 L 4464 545 L 4465 546 L 4468 545 L 4471 542 L 4472 542 L 4476 538 L 4477 538 L 4481 534 L 4482 534 L 4486 530 L 4487 530 L 4490 527 L 4491 527 L 4500 519 L 4501 519 L 4504 516 L 4505 516 L 4514 508 L 4515 508 L 4518 505 L 4519 505 L 4528 497 L 4529 497 L 4532 494 L 4533 494 L 4542 486 L 4543 486 L 4546 483 L 4547 483 L 4551 479 L 4552 479 L 4556 475 L 4557 475 L 4560 472 L 4561 472 L 4565 468 L 4566 468 L 4568 466 Z" fill="white" id="region_027" stroke="black" stroke-width="0.5" /><path d="M 4237 1001 L 4234 1001 L 4233 1002 L 4232 1002 L 4231 1003 L 4230 1003 L 4229 1004 L 4228 1004 L 4227 1005 L 4226 1005 L 4225 1006 L 4224 1006 L 4223 1007 L 4222 1007 L 4221 1008 L 4220 1008 L 4219 1009 L 4218 1009 L 4217 1010 L 4216 1010 L 4215 1011 L 4214 1011 L 4213 1012 L 4212 1012 L 4211 1013 L 4210 1013 L 4209 1014 L 4208 1014 L 4205 1016 L 4203 1016 L 4201 1014 L 4201 1013 L 4200 1012 L 4198 1012 L 4197 1013 L 4196 1013 L 4194 1015 L 4193 1015 L 4192 1016 L 4191 1016 L 4189 1018 L 4188 1018 L 4187 1019 L 4186 1019 L 4185 1020 L 4184 1020 L 4182 1022 L 4181 1022 L 4180 1023 L 4179 1023 L 4177 1025 L 4176 1025 L 4175 1026 L 4174 1026 L 4173 1027 L 4172 1027 L 4170 1029 L 4170 1036 L 4171 1037 L 4171 1045 L 4172 1046 L 4172 1054 L 4173 1055 L 4173 1063 L 4174 1064 L 4174 1072 L 4175 1073 L 4175 1081 L 4176 1082 L 4176 1090 L 4177 1091 L 4177 1092 L 4180 1092 L 4181 1091 L 4182 1091 L 4183 1090 L 4184 1090 L 4186 1088 L 4187 1088 L 4188 1087 L 4189 1087 L 4190 1086 L 4191 1086 L 4192 1085 L 4193 1085 L 4194 1084 L 4195 1084 L 4196 1083 L 4197 1083 L 4198 1082 L 4199 1082 L 4200 1081 L 4201 1081 L 4203 1079 L 4204 1079 L 4205 1078 L 4206 1078 L 4207 1077 L 4208 1077 L 4209 1076 L 4210 1076 L 4211 1075 L 4212 1075 L 4213 1074 L 4214 1074 L 4215 1073 L 4216 1073 L 4217 1072 L 4218 1072 L 4219 1071 L 4220 1071 L 4222 1069 L 4223 1069 L 4224 1068 L 4225 1068 L 4226 1067 L 4227 1067 L 4228 1066 L 4229 1066 L 4230 1065 L 4231 1065 L 4232 1064 L 4233 1064 L 4234 1063 L 4235 1063 L 4236 1062 L 4237 1062 L 4239 1060 L 4240 1060 L 4241 1059 L 4242 1059 L 4243 1058 L 4244 1058 L 4245 1057 L 4246 1057 L 4247 1056 L 4248 1056 L 4249 1055 L 4250 1055 L 4251 1054 L 4252 1054 L 4254 1052 L 4254 1049 L 4253 1048 L 4253 1046 L 4252 1045 L 4252 1043 L 4251 1042 L 4251 1040 L 4250 1039 L 4250 1037 L 4249 1036 L 4249 1034 L 4248 1033 L 4248 1031 L 4247 1030 L 4247 1028 L 4246 1027 L 4246 1025 L 4245 1024 L 4245 1022 L 4244 1021 L 4244 1019 L 4243 1018 L 4243 1016 L 4242 1015 L 4242 1013 L 4241 1012 L 4241 1010 L 4240 1009 L 4240 1007 L 4239 1006 L 4239 1004 Z" fill="white" id="region_028" stroke="black" stroke-width="0.5" /><path d="M 4158 1031 L 4156 1031 L 4155 1032 L 4154 1032 L 4153 1033 L 4152 1033 L 4151 1034 L 4150 1034 L 4148 1036 L 4147 1036 L 4146 1037 L 4145 1037 L 4143 1039 L 4142 1039 L 4141 1040 L 4140 1040 L 4138 1042 L 4137 1042 L 4136 1043 L 4135 1043 L 4133 1045 L 4132 1045 L 4131 1046 L 4130 1046 L 4128 1048 L 4127 1048 L 4126 1049 L 4125 1049 L 4123 1051 L 4122 1051 L 4121 1052 L 4120 1052 L 4119 1053 L 4118 1053 L 4116 1055 L 4115 1055 L 4114 1056 L 4113 1056 L 4111 1058 L 4110 1058 L 4109 1059 L 4108 1059 L 4106 1061 L 4105 1061 L 4104 1062 L 4103 1062 L 4101 1064 L 4100 1064 L 4099 1065 L 4098 1065 L 4096 1067 L 4095 1067 L 4094 1068 L 4093 1068 L 4091 1070 L 4090 1070 L 4089 1071 L 4088 1071 L 4087 1072 L 4086 1072 L 4084 1074 L 4084 1076 L 4085 1077 L 4085 1078 L 4086 1079 L 4086 1080 L 4088 1082 L 4088 1083 L 4090 1085 L 4090 1086 L 4092 1088 L 4092 1089 L 4094 1091 L 4094 1092 L 4095 1093 L 4095 1094 L 4097 1096 L 4097 1097 L 4099 1099 L 4099 1100 L 4101 1102 L 4101 1103 L 4103 1105 L 4103 1106 L 4105 1108 L 4105 1109 L 4106 1110 L 4106 1111 L 4108 1113 L 4108 1114 L 4110 1116 L 4110 1117 L 4112 1119 L 4112 1120 L 4114 1122 L 4114 1123 L 4116 1125 L 4119 1125 L 4120 1124 L 4121 1124 L 4122 1123 L 4123 1123 L 4124 1122 L 4125 1122 L 4126 1121 L 4127 1121 L 4128 1120 L 4129 1120 L 4130 1119 L 4131 1119 L 4132 1118 L 4133 1118 L 4134 1117 L 4135 1117 L 4136 1116 L 4137 1116 L 4138 1115 L 4139 1115 L 4140 1114 L 4141 1114 L 4143 1112 L 4144 1112 L 4145 1111 L 4146 1111 L 4147 1110 L 4148 1110 L 4149 1109 L 4150 1109 L 4151 1108 L 4152 1108 L 4153 1107 L 4154 1107 L 4155 1106 L 4156 1106 L 4157 1105 L 4158 1105 L 4159 1104 L 4160 1104 L 4161 1103 L 4162 1103 L 4163 1102 L 4164 1102 L 4165 1101 L 4166 1101 L 4167 1100 L 4168 1100 L 4170 1098 L 4170 1097 L 4169 1096 L 4169 1091 L 4168 1090 L 4168 1085 L 4167 1084 L 4167 1079 L 4166 1078 L 4166 1073 L 4165 1072 L 4165 1067 L 4164 1066 L 4164 1061 L 4163 1060 L 4163 1055 L 4162 1054 L 4162 1049 L 4161 1048 L 4161 1042 L 4160 1041 L 4160 1036 L 4159 1035 L 4159 1032 Z" fill="white" id="region_029" stroke="black" stroke-width="0.5" /><path d="M 311 425 L 311 465 L 851 465 L 851 425 L 845 425 L 844 459 L 584 459 L 583 425 L 578 425 L 577 459 L 531 459 L 530 425 L 524 425 L 523 459 L 477 459 L 476 425 L 471 425 L 470 459 L 424 459 L 423 425 L 417 425 L 416 459 L 371 459 L 370 425 L 364 425 L 363 459 L 317 459 L 316 425 Z" fill="white" id="region_030" stroke="black" stroke-width="0.5" /><path d="M 4580 484 L 4583 487 L 4583 488 L 4584 489 L 4584 490 L 4585 491 L 4585 492 L 4586 493 L 4586 494 L 4587 495 L 4587 496 L 4588 497 L 4588 498 L 4589 499 L 4589 500 L 4590 501 L 4590 502 L 4591 503 L 4591 504 L 4592 505 L 4592 506 L 4593 507 L 4593 508 L 4595 510 L 4595 511 L 4596 512 L 4596 513 L 4597 514 L 4597 515 L 4598 516 L 4598 517 L 4599 518 L 4599 519 L 4600 520 L 4600 521 L 4601 522 L 4601 523 L 4602 524 L 4602 525 L 4603 526 L 4603 527 L 4604 528 L 4604 529 L 4605 530 L 4605 531 L 4606 532 L 4606 533 L 4608 535 L 4608 536 L 4609 537 L 4609 538 L 4606 541 L 4605 541 L 4603 543 L 4602 543 L 4600 545 L 4599 545 L 4597 547 L 4596 547 L 4594 549 L 4593 549 L 4591 551 L 4590 551 L 4588 553 L 4587 553 L 4585 555 L 4584 555 L 4582 557 L 4581 557 L 4579 559 L 4578 559 L 4576 561 L 4575 561 L 4573 563 L 4572 563 L 4570 565 L 4569 565 L 4567 567 L 4566 567 L 4564 569 L 4563 569 L 4561 571 L 4560 571 L 4558 573 L 4557 573 L 4555 575 L 4554 575 L 4552 577 L 4551 577 L 4549 575 L 4549 574 L 4547 572 L 4547 571 L 4545 569 L 4545 568 L 4543 566 L 4543 565 L 4541 563 L 4541 562 L 4539 560 L 4539 559 L 4537 557 L 4537 556 L 4535 554 L 4535 553 L 4533 551 L 4533 550 L 4531 548 L 4531 547 L 4529 545 L 4529 544 L 4527 542 L 4527 541 L 4525 539 L 4525 538 L 4523 536 L 4523 535 L 4521 533 L 4521 532 L 4519 530 L 4519 529 L 4518 528 L 4518 526 L 4521 523 L 4522 523 L 4524 521 L 4525 521 L 4527 519 L 4528 519 L 4530 517 L 4531 517 L 4533 515 L 4534 515 L 4536 513 L 4537 513 L 4540 510 L 4541 510 L 4543 508 L 4544 508 L 4546 506 L 4547 506 L 4549 504 L 4550 504 L 4552 502 L 4553 502 L 4556 499 L 4557 499 L 4559 497 L 4560 497 L 4562 495 L 4563 495 L 4565 493 L 4566 493 L 4568 491 L 4569 491 L 4571 489 L 4572 489 L 4575 486 L 4576 486 L 4578 484 Z" fill="white" id="region_031" stroke="black" stroke-width="0.5" /><path d="M 4289 945 L 4290 946 L 4290 947 L 4291 948 L 4291 949 L 4292 950 L 4292 951 L 4293 952 L 4293 953 L 4294 954 L 4294 955 L 4295 956 L 4295 957 L 4296 958 L 4296 959 L 4297 960 L 4297 961 L 4298 962 L 4298 963 L 4299 964 L 4299 965 L 4300 966 L 4300 967 L 4301 968 L 4301 969 L 4302 970 L 4302 971 L 4303 972 L 4303 974 L 4304 975 L 4304 976 L 4305 977 L 4305 978 L 4306 979 L 4306 980 L 4307 981 L 4307 982 L 4308 983 L 4308 984 L 4309 985 L 4309 986 L 4310 987 L 4310 988 L 4311 989 L 4311 990 L 4312 991 L 4312 992 L 4313 993 L 4313 994 L 4314 995 L 4314 996 L 4315 997 L 4315 998 L 4316 999 L 4316 1000 L 4317 1001 L 4317 1002 L 4318 1003 L 4318 1004 L 4319 1005 L 4319 1006 L 4320 1007 L 4320 1008 L 4321 1009 L 4321 1010 L 4322 1011 L 4322 1012 L 4323 1013 L 4323 1016 L 4319 1020 L 4319 1021 L 4315 1025 L 4314 1025 L 4313 1026 L 4312 1026 L 4311 1027 L 4309 1027 L 4308 1028 L 4307 1028 L 4306 1029 L 4305 1029 L 4304 1030 L 4302 1030 L 4301 1031 L 4300 1031 L 4299 1032 L 4297 1032 L 4296 1033 L 4295 1033 L 4294 1034 L 4293 1034 L 4292 1035 L 4290 1035 L 4289 1036 L 4288 1036 L 4287 1037 L 4286 1037 L 4285 1038 L 4283 1038 L 4282 1039 L 4281 1039 L 4280 1040 L 4278 1040 L 4277 1041 L 4276 1041 L 4275 1042 L 4274 1042 L 4273 1041 L 4273 1040 L 4272 1039 L 4272 1038 L 4271 1037 L 4271 1035 L 4270 1034 L 4270 1033 L 4269 1032 L 4269 1031 L 4268 1030 L 4268 1028 L 4267 1027 L 4267 1026 L 4266 1025 L 4266 1023 L 4265 1022 L 4265 1021 L 4264 1020 L 4264 1018 L 4263 1017 L 4263 1016 L 4262 1015 L 4262 1013 L 4261 1012 L 4261 1011 L 4260 1010 L 4260 1008 L 4259 1007 L 4259 1006 L 4258 1005 L 4258 1004 L 4257 1003 L 4257 1001 L 4256 1000 L 4256 999 L 4255 998 L 4255 996 L 4254 995 L 4254 994 L 4253 993 L 4253 991 L 4252 990 L 4252 989 L 4251 988 L 4251 984 L 4264 971 L 4264 970 L 4280 954 L 4280 953 L 4288 945 Z" fill="white" id="region_032" stroke="black" stroke-width="0.5" /><path d="M 4668 341 L 4669 342 L 4669 348 L 4668 349 L 4668 365 L 4667 366 L 4667 381 L 4666 382 L 4666 397 L 4665 398 L 4665 413 L 4664 414 L 4664 429 L 4663 430 L 4663 437 L 4662 438 L 4662 439 L 4654 447 L 4651 447 L 4648 444 L 4648 443 L 4646 441 L 4646 440 L 4644 438 L 4644 437 L 4642 435 L 4642 434 L 4638 429 L 4638 428 L 4637 427 L 4637 426 L 4635 424 L 4635 423 L 4633 421 L 4633 420 L 4631 417 L 4631 416 L 4634 413 L 4635 413 L 4638 410 L 4639 410 L 4642 407 L 4642 405 L 4636 399 L 4636 398 L 4634 396 L 4632 396 L 4629 399 L 4628 399 L 4625 402 L 4624 402 L 4623 403 L 4622 403 L 4620 401 L 4620 400 L 4619 399 L 4619 396 L 4618 395 L 4618 392 L 4617 391 L 4617 385 L 4616 384 L 4616 376 L 4615 375 L 4615 348 L 4616 347 L 4629 347 L 4630 346 L 4649 346 L 4650 345 L 4658 345 L 4659 344 L 4662 344 L 4663 343 L 4664 343 L 4665 342 L 4666 342 L 4667 341 Z" fill="white" id="region_033" stroke="black" stroke-width="0.5" /><path d="M 4155 1037 L 4156 1038 L 4156 1040 L 4157 1041 L 4157 1046 L 4158 1047 L 4158 1052 L 4159 1053 L 4159 1058 L 4160 1059 L 4160 1064 L 4161 1065 L 4161 1070 L 4162 1071 L 4162 1076 L 4163 1077 L 4163 1082 L 4164 1083 L 4164 1088 L 4165 1089 L 4165 1094 L 4166 1095 L 4166 1096 L 4165 1097 L 4164 1097 L 4163 1098 L 4162 1098 L 4160 1100 L 4159 1100 L 4158 1101 L 4157 1101 L 4156 1102 L 4155 1102 L 4154 1103 L 4153 1103 L 4152 1104 L 4151 1104 L 4150 1105 L 4149 1105 L 4148 1106 L 4147 1106 L 4146 1107 L 4145 1107 L 4144 1108 L 4143 1108 L 4142 1109 L 4141 1109 L 4140 1110 L 4139 1110 L 4138 1111 L 4137 1111 L 4136 1112 L 4135 1112 L 4134 1113 L 4133 1113 L 4132 1114 L 4131 1114 L 4130 1115 L 4129 1115 L 4128 1116 L 4127 1116 L 4126 1117 L 4125 1117 L 4124 1118 L 4123 1118 L 4122 1119 L 4121 1119 L 4120 1120 L 4117 1120 L 4116 1119 L 4116 1118 L 4115 1117 L 4115 1116 L 4113 1114 L 4113 1113 L 4111 1111 L 4111 1110 L 4109 1108 L 4109 1107 L 4107 1105 L 4107 1104 L 4105 1102 L 4105 1101 L 4104 1100 L 4104 1099 L 4102 1097 L 4102 1096 L 4100 1094 L 4100 1093 L 4098 1091 L 4098 1090 L 4096 1088 L 4096 1087 L 4094 1085 L 4094 1084 L 4093 1083 L 4093 1082 L 4091 1080 L 4091 1079 L 4089 1077 L 4089 1076 L 4091 1074 L 4092 1074 L 4094 1072 L 4095 1072 L 4096 1071 L 4097 1071 L 4099 1069 L 4100 1069 L 4101 1068 L 4102 1068 L 4104 1066 L 4105 1066 L 4106 1065 L 4107 1065 L 4108 1064 L 4109 1064 L 4111 1062 L 4112 1062 L 4113 1061 L 4114 1061 L 4116 1059 L 4117 1059 L 4118 1058 L 4119 1058 L 4121 1056 L 4122 1056 L 4123 1055 L 4124 1055 L 4126 1053 L 4127 1053 L 4128 1052 L 4129 1052 L 4131 1050 L 4132 1050 L 4133 1049 L 4134 1049 L 4136 1047 L 4137 1047 L 4138 1046 L 4139 1046 L 4140 1045 L 4141 1045 L 4143 1043 L 4144 1043 L 4145 1042 L 4146 1042 L 4148 1040 L 4149 1040 L 4150 1039 L 4151 1039 L 4153 1037 Z" fill="white" id="region_034" stroke="black" stroke-width="0.5" /><path d="M 4234 1006 L 4236 1008 L 4236 1010 L 4237 1011 L 4237 1012 L 4238 1013 L 4238 1015 L 4239 1016 L 4239 1018 L 4240 1019 L 4240 1021 L 4241 1022 L 4241 1024 L 4242 1025 L 4242 1027 L 4243 1028 L 4243 1030 L 4244 1031 L 4244 1033 L 4245 1034 L 4245 1036 L 4246 1037 L 4246 1039 L 4247 1040 L 4247 1042 L 4248 1043 L 4248 1045 L 4249 1046 L 4249 1048 L 4250 1049 L 4250 1050 L 4249 1051 L 4248 1051 L 4247 1052 L 4246 1052 L 4245 1053 L 4244 1053 L 4243 1054 L 4242 1054 L 4241 1055 L 4240 1055 L 4238 1057 L 4237 1057 L 4236 1058 L 4235 1058 L 4234 1059 L 4233 1059 L 4232 1060 L 4231 1060 L 4230 1061 L 4229 1061 L 4228 1062 L 4227 1062 L 4226 1063 L 4225 1063 L 4224 1064 L 4223 1064 L 4221 1066 L 4220 1066 L 4219 1067 L 4218 1067 L 4217 1068 L 4216 1068 L 4215 1069 L 4214 1069 L 4213 1070 L 4212 1070 L 4211 1071 L 4210 1071 L 4209 1072 L 4208 1072 L 4207 1073 L 4206 1073 L 4205 1074 L 4204 1074 L 4202 1076 L 4201 1076 L 4200 1077 L 4199 1077 L 4198 1078 L 4197 1078 L 4196 1079 L 4195 1079 L 4194 1080 L 4193 1080 L 4192 1081 L 4191 1081 L 4190 1082 L 4189 1082 L 4188 1083 L 4187 1083 L 4185 1085 L 4184 1085 L 4183 1086 L 4181 1086 L 4179 1084 L 4179 1076 L 4178 1075 L 4178 1067 L 4177 1066 L 4177 1058 L 4176 1057 L 4176 1049 L 4175 1048 L 4175 1040 L 4174 1039 L 4174 1031 L 4175 1030 L 4176 1030 L 4177 1029 L 4178 1029 L 4180 1027 L 4181 1027 L 4182 1026 L 4183 1026 L 4184 1025 L 4185 1025 L 4187 1023 L 4188 1023 L 4189 1022 L 4190 1022 L 4192 1020 L 4193 1020 L 4194 1019 L 4195 1019 L 4196 1018 L 4198 1018 L 4199 1019 L 4199 1020 L 4200 1021 L 4203 1021 L 4204 1020 L 4205 1020 L 4206 1019 L 4207 1019 L 4208 1018 L 4209 1018 L 4210 1017 L 4212 1017 L 4213 1016 L 4214 1016 L 4215 1015 L 4216 1015 L 4217 1014 L 4218 1014 L 4219 1013 L 4220 1013 L 4221 1012 L 4222 1012 L 4223 1011 L 4224 1011 L 4225 1010 L 4226 1010 L 4227 1009 L 4228 1009 L 4229 1008 L 4230 1008 L 4231 1007 L 4232 1007 L 4233 1006 Z" fill="white" id="region_035" stroke="black" stroke-width="0.5" /><path d="M 412 251 L 412 267 L 411 268 L 398 268 L 398 276 L 422 276 L 423 278 L 415 290 L 403 302 L 396 306 L 396 309 L 399 314 L 404 311 L 410 305 L 412 306 L 412 341 L 419 341 L 419 304 L 420 303 L 422 303 L 426 305 L 430 309 L 431 309 L 433 305 L 434 300 L 428 297 L 423 296 L 421 293 L 424 290 L 430 279 L 435 273 L 437 274 L 437 318 L 445 318 L 446 316 L 455 316 L 456 317 L 456 341 L 463 341 L 463 317 L 464 316 L 474 316 L 475 318 L 482 318 L 482 268 L 464 268 L 463 267 L 463 255 L 465 253 L 456 253 L 456 267 L 455 268 L 437 268 L 437 271 L 435 272 L 428 266 L 426 268 L 420 268 L 419 267 L 419 253 L 420 251 Z" fill="white" id="region_036" stroke="black" stroke-width="0.5" /><path d="M 4562 464 L 4562 465 L 4558 469 L 4557 469 L 4553 473 L 4552 473 L 4549 476 L 4548 476 L 4544 480 L 4543 480 L 4539 484 L 4538 484 L 4534 488 L 4533 488 L 4530 491 L 4529 491 L 4525 495 L 4524 495 L 4520 499 L 4519 499 L 4516 502 L 4515 502 L 4511 506 L 4510 506 L 4506 510 L 4505 510 L 4502 513 L 4501 513 L 4497 517 L 4496 517 L 4492 521 L 4491 521 L 4488 524 L 4487 524 L 4483 528 L 4482 528 L 4478 532 L 4477 532 L 4474 535 L 4473 535 L 4469 539 L 4468 539 L 4466 541 L 4464 541 L 4462 539 L 4461 539 L 4459 537 L 4458 537 L 4456 535 L 4455 535 L 4454 534 L 4454 531 L 4456 529 L 4456 528 L 4457 527 L 4457 526 L 4458 525 L 4458 524 L 4459 523 L 4459 522 L 4461 520 L 4461 519 L 4462 518 L 4462 517 L 4463 516 L 4463 515 L 4464 514 L 4464 513 L 4466 511 L 4466 510 L 4467 509 L 4467 508 L 4468 507 L 4468 506 L 4469 505 L 4469 504 L 4471 502 L 4471 501 L 4472 500 L 4472 499 L 4473 498 L 4473 497 L 4474 496 L 4474 495 L 4476 493 L 4476 492 L 4477 491 L 4477 490 L 4482 485 L 4483 485 L 4485 483 L 4486 483 L 4489 480 L 4490 480 L 4493 477 L 4494 477 L 4496 475 L 4497 475 L 4500 472 L 4501 472 L 4504 469 L 4505 469 L 4507 467 L 4508 467 L 4511 464 L 4512 464 L 4515 461 L 4516 461 L 4518 459 L 4519 459 L 4522 456 L 4523 456 L 4525 454 L 4526 454 L 4529 451 L 4530 451 L 4533 448 L 4534 448 L 4536 446 L 4539 446 L 4542 449 L 4543 449 L 4546 452 L 4547 452 L 4551 456 L 4552 456 L 4555 459 L 4556 459 L 4559 462 L 4560 462 Z" fill="white" id="region_037" stroke="black" stroke-width="0.5" /><path d="M 4501 527 L 4499 529 L 4498 529 L 4494 533 L 4493 533 L 4490 536 L 4489 536 L 4485 540 L 4484 540 L 4481 543 L 4480 543 L 4476 547 L 4475 547 L 4472 550 L 4471 550 L 4467 554 L 4466 554 L 4463 557 L 4462 557 L 4458 561 L 4457 561 L 4457 562 L 4456 563 L 4457 564 L 4457 565 L 4459 567 L 4460 567 L 4466 573 L 4467 573 L 4471 577 L 4472 577 L 4476 581 L 4477 581 L 4480 584 L 4481 584 L 4484 587 L 4485 587 L 4487 589 L 4488 589 L 4490 591 L 4491 591 L 4493 593 L 4494 593 L 4496 595 L 4497 595 L 4498 596 L 4499 596 L 4500 597 L 4501 597 L 4502 598 L 4504 598 L 4505 599 L 4507 599 L 4508 600 L 4516 600 L 4517 599 L 4520 599 L 4521 598 L 4523 598 L 4524 597 L 4525 597 L 4526 596 L 4527 596 L 4528 595 L 4529 595 L 4531 593 L 4532 593 L 4536 589 L 4537 589 L 4537 588 L 4538 587 L 4538 586 L 4537 585 L 4537 584 L 4536 583 L 4536 582 L 4535 581 L 4535 580 L 4533 578 L 4533 577 L 4532 576 L 4532 575 L 4530 573 L 4530 572 L 4529 571 L 4529 570 L 4527 568 L 4527 567 L 4526 566 L 4526 565 L 4525 564 L 4525 563 L 4523 561 L 4523 560 L 4522 559 L 4522 558 L 4520 556 L 4520 555 L 4519 554 L 4519 553 L 4518 552 L 4518 551 L 4516 549 L 4516 548 L 4515 547 L 4515 546 L 4513 544 L 4513 543 L 4512 542 L 4512 541 L 4511 540 L 4511 539 L 4509 537 L 4509 536 L 4508 535 L 4508 534 L 4506 532 L 4506 531 L 4505 530 L 4505 529 L 4503 527 Z" fill="white" id="region_038" stroke="black" stroke-width="0.5" /><path d="M 3590 3187 L 3590 3191 L 3595 3196 L 3596 3196 L 3597 3197 L 3597 3199 L 3598 3199 L 3599 3200 L 3606 3200 L 3607 3201 L 3612 3201 L 3613 3202 L 3615 3202 L 3618 3204 L 3622 3204 L 3623 3203 L 3624 3203 L 3626 3201 L 3627 3201 L 3629 3203 L 3629 3204 L 3630 3205 L 3630 3206 L 3631 3207 L 3631 3208 L 3632 3209 L 3632 3210 L 3634 3213 L 3638 3213 L 3639 3212 L 3640 3212 L 3641 3211 L 3642 3211 L 3647 3206 L 3658 3206 L 3659 3207 L 3659 3208 L 3658 3209 L 3658 3213 L 3659 3214 L 3659 3215 L 3660 3215 L 3662 3217 L 3663 3217 L 3665 3219 L 3667 3219 L 3668 3220 L 3669 3220 L 3672 3222 L 3674 3222 L 3677 3224 L 3679 3224 L 3680 3225 L 3683 3225 L 3684 3226 L 3693 3226 L 3694 3225 L 3695 3225 L 3695 3224 L 3696 3223 L 3696 3221 L 3695 3220 L 3695 3219 L 3681 3205 L 3681 3204 L 3680 3203 L 3680 3202 L 3681 3201 L 3681 3198 L 3682 3197 L 3682 3195 L 3683 3194 L 3683 3191 L 3681 3189 L 3680 3189 L 3679 3188 L 3676 3188 L 3675 3187 L 3672 3187 L 3671 3186 L 3669 3186 L 3668 3185 L 3667 3185 L 3663 3181 L 3663 3180 L 3662 3179 L 3662 3177 L 3660 3175 L 3655 3175 L 3654 3176 L 3652 3176 L 3649 3178 L 3647 3178 L 3644 3180 L 3642 3180 L 3641 3181 L 3637 3181 L 3636 3180 L 3633 3180 L 3632 3179 L 3629 3179 L 3628 3178 L 3626 3178 L 3625 3177 L 3623 3177 L 3622 3176 L 3620 3176 L 3619 3175 L 3617 3175 L 3616 3174 L 3614 3174 L 3613 3173 L 3612 3173 L 3611 3172 L 3609 3172 L 3606 3170 L 3602 3170 L 3602 3171 L 3601 3172 L 3601 3176 L 3600 3177 L 3600 3178 L 3595 3183 L 3594 3183 Z" fill="white" id="region_039" stroke="black" stroke-width="0.5" /><path d="M 4363 667 L 4362 666 L 4347 666 L 4346 667 L 4296 667 L 4295 668 L 4285 668 L 4285 680 L 4286 681 L 4286 685 L 4287 686 L 4287 689 L 4288 690 L 4288 692 L 4289 693 L 4289 694 L 4290 695 L 4290 697 L 4291 698 L 4291 699 L 4293 701 L 4293 702 L 4295 704 L 4295 705 L 4304 714 L 4305 714 L 4307 716 L 4308 716 L 4309 717 L 4310 717 L 4311 718 L 4312 718 L 4313 719 L 4314 719 L 4315 720 L 4316 720 L 4317 721 L 4319 721 L 4320 722 L 4323 722 L 4324 721 L 4324 720 L 4327 717 L 4327 716 L 4330 713 L 4330 712 L 4333 709 L 4333 708 L 4336 705 L 4336 704 L 4340 700 L 4340 699 L 4343 696 L 4343 695 L 4346 692 L 4346 691 L 4349 688 L 4349 687 L 4352 684 L 4352 683 L 4356 679 L 4356 678 L 4359 675 L 4359 674 L 4362 671 L 4362 670 L 4363 669 Z" fill="white" id="region_040" stroke="black" stroke-width="0.5" /><path d="M 4500 533 L 4502 533 L 4504 535 L 4504 536 L 4505 537 L 4505 538 L 4506 539 L 4506 540 L 4508 542 L 4508 543 L 4509 544 L 4509 545 L 4511 547 L 4511 548 L 4512 549 L 4512 550 L 4514 552 L 4514 553 L 4515 554 L 4515 555 L 4516 556 L 4516 557 L 4518 559 L 4518 560 L 4519 561 L 4519 562 L 4521 564 L 4521 565 L 4522 566 L 4522 567 L 4523 568 L 4523 569 L 4525 571 L 4525 572 L 4526 573 L 4526 574 L 4528 576 L 4528 577 L 4529 578 L 4529 579 L 4530 580 L 4530 581 L 4532 583 L 4532 584 L 4533 585 L 4533 586 L 4528 591 L 4527 591 L 4526 592 L 4525 592 L 4524 593 L 4523 593 L 4522 594 L 4521 594 L 4520 595 L 4518 595 L 4517 596 L 4508 596 L 4507 595 L 4505 595 L 4504 594 L 4503 594 L 4502 593 L 4501 593 L 4500 592 L 4499 592 L 4497 590 L 4496 590 L 4495 589 L 4494 589 L 4492 587 L 4491 587 L 4488 584 L 4487 584 L 4485 582 L 4484 582 L 4481 579 L 4480 579 L 4476 575 L 4475 575 L 4470 570 L 4469 570 L 4464 565 L 4463 565 L 4462 564 L 4462 563 L 4465 560 L 4466 560 L 4470 556 L 4471 556 L 4474 553 L 4475 553 L 4479 549 L 4480 549 L 4483 546 L 4484 546 L 4488 542 L 4489 542 L 4492 539 L 4493 539 L 4497 535 L 4498 535 Z" fill="white" id="region_041" stroke="black" stroke-width="0.5" /><path d="M 4281 325 L 4280 326 L 4275 326 L 4275 329 L 4274 330 L 4274 334 L 4273 335 L 4273 339 L 4272 340 L 4272 344 L 4271 345 L 4271 350 L 4270 351 L 4270 357 L 4269 358 L 4269 364 L 4268 365 L 4268 373 L 4267 374 L 4267 412 L 4268 413 L 4288 413 L 4289 414 L 4291 414 L 4293 412 L 4293 395 L 4294 394 L 4294 376 L 4295 375 L 4295 357 L 4296 356 L 4296 338 L 4297 337 L 4297 325 Z" fill="white" id="region_042" stroke="black" stroke-width="0.5" /><path d="M 700 254 L 700 298 L 750 298 L 750 254 Z" fill="white" id="region_043" stroke="black" stroke-width="0.5" /><path d="M 496 263 L 496 271 L 520 271 L 521 272 L 521 273 L 513 281 L 510 282 L 508 284 L 507 284 L 506 285 L 504 285 L 501 287 L 499 287 L 498 288 L 496 288 L 495 289 L 492 289 L 491 290 L 492 291 L 492 293 L 493 294 L 494 297 L 495 297 L 496 296 L 499 296 L 500 295 L 502 295 L 503 294 L 504 294 L 505 293 L 507 293 L 512 290 L 513 290 L 514 291 L 514 296 L 557 296 L 557 289 L 558 288 L 559 288 L 564 291 L 566 291 L 567 292 L 569 292 L 570 293 L 572 293 L 573 294 L 576 294 L 577 295 L 577 294 L 580 289 L 580 288 L 579 287 L 577 287 L 576 286 L 574 286 L 573 285 L 571 285 L 570 284 L 568 284 L 567 283 L 566 283 L 565 282 L 564 282 L 563 281 L 562 281 L 561 280 L 558 279 L 551 273 L 551 272 L 552 271 L 576 271 L 576 263 L 536 263 L 535 262 L 535 261 L 536 260 L 536 258 L 537 257 L 537 254 L 539 252 L 539 251 L 536 251 L 535 250 L 530 250 L 530 253 L 529 254 L 529 257 L 528 258 L 528 260 L 526 263 Z" fill="white" id="region_044" stroke="black" stroke-width="0.5" /><path d="M 3766 1238 L 3757 1247 L 3757 1248 L 3754 1251 L 3754 1252 L 3752 1254 L 3752 1255 L 3750 1257 L 3750 1258 L 3749 1259 L 3749 1262 L 3750 1263 L 3750 1265 L 3747 1268 L 3747 1270 L 3748 1271 L 3748 1272 L 3749 1273 L 3749 1274 L 3750 1275 L 3750 1276 L 3753 1276 L 3754 1275 L 3755 1275 L 3756 1274 L 3758 1274 L 3759 1273 L 3760 1273 L 3761 1272 L 3764 1272 L 3797 1305 L 3798 1305 L 3799 1306 L 3801 1306 L 3805 1302 L 3805 1301 L 3808 1298 L 3808 1297 L 3807 1296 L 3807 1295 L 3802 1290 L 3802 1289 L 3798 1285 L 3798 1284 L 3793 1279 L 3793 1278 L 3788 1273 L 3788 1271 L 3802 1257 L 3802 1254 L 3798 1250 L 3798 1249 L 3796 1247 L 3796 1246 L 3791 1241 L 3790 1241 L 3789 1240 L 3787 1240 L 3786 1239 L 3784 1239 L 3783 1238 L 3777 1238 L 3776 1237 L 3769 1237 L 3768 1238 Z" fill="white" id="region_045" stroke="black" stroke-width="0.5" /><path d="M 4355 670 L 4356 671 L 4356 672 L 4353 675 L 4353 676 L 4350 679 L 4350 680 L 4347 683 L 4347 684 L 4344 687 L 4344 688 L 4340 692 L 4340 693 L 4337 696 L 4337 697 L 4334 700 L 4334 701 L 4331 704 L 4331 705 L 4328 708 L 4328 709 L 4324 713 L 4324 714 L 4321 717 L 4317 717 L 4316 716 L 4315 716 L 4314 715 L 4313 715 L 4311 713 L 4310 713 L 4308 711 L 4307 711 L 4297 701 L 4297 700 L 4296 699 L 4296 698 L 4294 696 L 4294 695 L 4293 694 L 4293 693 L 4292 692 L 4292 690 L 4291 689 L 4291 687 L 4290 686 L 4290 683 L 4289 682 L 4289 676 L 4288 675 L 4288 672 L 4289 671 L 4322 671 L 4323 670 Z" fill="white" id="region_046" stroke="black" stroke-width="0.5" /><path d="M 4437 360 L 4436 361 L 4435 361 L 4433 363 L 4432 363 L 4430 365 L 4429 365 L 4427 367 L 4426 367 L 4424 369 L 4423 369 L 4421 371 L 4420 371 L 4418 373 L 4417 373 L 4415 375 L 4415 376 L 4416 377 L 4416 378 L 4417 379 L 4417 380 L 4420 383 L 4420 384 L 4422 386 L 4422 387 L 4424 389 L 4424 390 L 4426 392 L 4426 393 L 4428 395 L 4428 396 L 4430 398 L 4430 399 L 4432 401 L 4432 402 L 4435 405 L 4435 406 L 4437 408 L 4437 409 L 4439 411 L 4439 412 L 4441 414 L 4441 415 L 4443 417 L 4443 418 L 4445 420 L 4445 421 L 4447 423 L 4447 424 L 4450 427 L 4450 428 L 4452 430 L 4452 431 L 4454 433 L 4454 434 L 4456 436 L 4456 437 L 4458 439 L 4458 440 L 4461 440 L 4463 438 L 4463 437 L 4469 431 L 4469 430 L 4474 425 L 4474 422 L 4472 420 L 4472 419 L 4471 418 L 4471 417 L 4470 416 L 4470 415 L 4469 414 L 4469 413 L 4467 411 L 4467 410 L 4466 409 L 4466 408 L 4465 407 L 4465 406 L 4463 404 L 4463 403 L 4462 402 L 4462 401 L 4461 400 L 4461 399 L 4460 398 L 4460 397 L 4458 395 L 4458 394 L 4457 393 L 4457 392 L 4456 391 L 4456 390 L 4455 389 L 4455 388 L 4453 386 L 4453 385 L 4452 384 L 4452 383 L 4451 382 L 4451 381 L 4450 380 L 4450 379 L 4448 377 L 4448 376 L 4447 375 L 4447 374 L 4446 373 L 4446 372 L 4444 370 L 4444 369 L 4443 368 L 4443 367 L 4442 366 L 4442 365 L 4441 364 L 4441 363 L 4438 360 Z" fill="white" id="region_047" stroke="black" stroke-width="0.5" /><path d="M 3595 3188 L 3597 3186 L 3598 3186 L 3603 3181 L 3603 3180 L 3604 3179 L 3604 3176 L 3605 3175 L 3608 3175 L 3609 3176 L 3610 3176 L 3611 3177 L 3613 3177 L 3614 3178 L 3616 3178 L 3617 3179 L 3619 3179 L 3620 3180 L 3622 3180 L 3623 3181 L 3625 3181 L 3626 3182 L 3628 3182 L 3629 3183 L 3632 3183 L 3633 3184 L 3644 3184 L 3645 3183 L 3647 3183 L 3648 3182 L 3649 3182 L 3650 3181 L 3652 3181 L 3653 3180 L 3654 3180 L 3655 3179 L 3658 3179 L 3659 3180 L 3659 3182 L 3660 3183 L 3660 3184 L 3664 3188 L 3665 3188 L 3666 3189 L 3668 3189 L 3669 3190 L 3672 3190 L 3673 3191 L 3676 3191 L 3677 3192 L 3678 3192 L 3679 3193 L 3679 3194 L 3678 3195 L 3678 3197 L 3677 3198 L 3677 3206 L 3678 3207 L 3678 3208 L 3690 3220 L 3690 3222 L 3689 3223 L 3688 3223 L 3687 3222 L 3684 3222 L 3683 3221 L 3680 3221 L 3679 3220 L 3678 3220 L 3677 3219 L 3675 3219 L 3674 3218 L 3673 3218 L 3672 3217 L 3670 3217 L 3669 3216 L 3668 3216 L 3667 3215 L 3666 3215 L 3664 3213 L 3663 3213 L 3662 3212 L 3662 3208 L 3663 3207 L 3663 3205 L 3662 3204 L 3662 3203 L 3661 3203 L 3660 3202 L 3649 3202 L 3648 3203 L 3645 3203 L 3644 3204 L 3643 3204 L 3639 3208 L 3636 3208 L 3635 3207 L 3635 3206 L 3634 3205 L 3634 3204 L 3633 3203 L 3633 3202 L 3632 3201 L 3632 3200 L 3631 3199 L 3631 3198 L 3630 3197 L 3625 3197 L 3624 3198 L 3623 3198 L 3621 3200 L 3619 3200 L 3618 3199 L 3616 3199 L 3615 3198 L 3612 3198 L 3611 3197 L 3603 3197 L 3599 3193 L 3598 3193 L 3595 3190 Z" fill="white" id="region_048" stroke="black" stroke-width="0.5" /><path d="M 4650 3214 L 4656 3214 L 4657 3215 L 4660 3215 L 4661 3216 L 4663 3216 L 4664 3217 L 4665 3217 L 4666 3218 L 4668 3218 L 4669 3219 L 4671 3219 L 4672 3220 L 4674 3220 L 4675 3221 L 4677 3221 L 4678 3222 L 4678 3277 L 4677 3278 L 4642 3278 L 4641 3277 L 4641 3276 L 4643 3274 L 4643 3271 L 4644 3270 L 4644 3263 L 4645 3262 L 4645 3260 L 4646 3259 L 4646 3258 L 4654 3250 L 4655 3250 L 4656 3249 L 4656 3248 L 4658 3246 L 4658 3245 L 4659 3244 L 4659 3236 L 4658 3235 L 4658 3233 L 4657 3232 L 4657 3231 L 4656 3230 L 4656 3229 L 4655 3228 L 4655 3227 L 4654 3226 L 4654 3225 L 4653 3224 L 4653 3223 L 4652 3222 L 4652 3221 L 4650 3219 L 4650 3218 L 4649 3217 L 4649 3215 Z" fill="white" id="region_049" stroke="black" stroke-width="0.5" /><path d="M 3791 2201 L 3793 2203 L 3793 2206 L 3794 2207 L 3794 2210 L 3795 2211 L 3795 2212 L 3800 2217 L 3801 2217 L 3802 2218 L 3803 2218 L 3804 2219 L 3805 2219 L 3806 2220 L 3807 2220 L 3808 2221 L 3810 2221 L 3811 2222 L 3812 2222 L 3813 2223 L 3814 2223 L 3817 2226 L 3817 2228 L 3814 2231 L 3813 2231 L 3811 2233 L 3809 2233 L 3808 2234 L 3805 2234 L 3804 2235 L 3801 2235 L 3800 2236 L 3799 2236 L 3798 2237 L 3797 2237 L 3796 2238 L 3796 2239 L 3795 2240 L 3795 2241 L 3794 2242 L 3794 2243 L 3793 2244 L 3793 2245 L 3792 2246 L 3792 2248 L 3791 2249 L 3791 2251 L 3790 2252 L 3790 2253 L 3789 2254 L 3789 2256 L 3788 2257 L 3788 2259 L 3787 2260 L 3787 2261 L 3786 2262 L 3786 2264 L 3785 2265 L 3785 2266 L 3784 2267 L 3782 2267 L 3780 2265 L 3780 2264 L 3774 2258 L 3774 2257 L 3771 2254 L 3771 2253 L 3769 2251 L 3769 2250 L 3768 2249 L 3768 2248 L 3767 2247 L 3767 2246 L 3766 2245 L 3766 2243 L 3765 2242 L 3765 2240 L 3766 2239 L 3766 2237 L 3767 2236 L 3767 2235 L 3768 2234 L 3768 2233 L 3769 2232 L 3769 2231 L 3772 2228 L 3772 2227 L 3775 2224 L 3775 2223 L 3777 2221 L 3777 2220 L 3779 2218 L 3779 2217 L 3780 2216 L 3780 2215 L 3781 2214 L 3781 2213 L 3783 2211 L 3783 2210 L 3785 2208 L 3785 2207 L 3787 2205 L 3787 2204 L 3790 2201 Z" fill="white" id="region_050" stroke="black" stroke-width="0.5" /><path d="M 4279 329 L 4292 329 L 4293 330 L 4293 345 L 4292 346 L 4292 364 L 4291 365 L 4291 384 L 4290 385 L 4290 403 L 4289 404 L 4289 409 L 4288 410 L 4275 410 L 4274 409 L 4272 409 L 4271 408 L 4271 370 L 4272 369 L 4272 362 L 4273 361 L 4273 356 L 4274 355 L 4274 350 L 4275 349 L 4275 344 L 4276 343 L 4276 339 L 4277 338 L 4277 334 L 4278 333 L 4278 330 Z" fill="white" id="region_051" stroke="black" stroke-width="0.5" /><path d="M 4638 288 L 4637 287 L 4627 287 L 4626 288 L 4616 288 L 4615 289 L 4607 289 L 4606 288 L 4606 286 L 4607 285 L 4607 283 L 4608 282 L 4608 278 L 4603 278 L 4602 279 L 4597 279 L 4596 280 L 4592 280 L 4591 281 L 4587 281 L 4585 283 L 4585 284 L 4583 286 L 4583 287 L 4582 288 L 4582 289 L 4581 290 L 4581 291 L 4580 292 L 4580 303 L 4581 304 L 4581 307 L 4582 308 L 4582 311 L 4583 312 L 4583 314 L 4584 315 L 4584 318 L 4585 319 L 4585 320 L 4598 320 L 4599 319 L 4607 319 L 4607 312 L 4606 311 L 4606 306 L 4605 305 L 4605 304 L 4606 303 L 4614 303 L 4615 302 L 4626 302 L 4627 301 L 4637 301 L 4638 300 L 4639 300 L 4639 295 L 4638 294 Z" fill="white" id="region_052" stroke="black" stroke-width="0.5" /><path d="M 3769 1241 L 3779 1241 L 3780 1242 L 3783 1242 L 3784 1243 L 3786 1243 L 3787 1244 L 3788 1244 L 3789 1245 L 3790 1245 L 3791 1246 L 3791 1247 L 3793 1249 L 3793 1250 L 3796 1253 L 3796 1254 L 3797 1255 L 3797 1256 L 3783 1270 L 3783 1273 L 3786 1276 L 3786 1277 L 3791 1282 L 3791 1283 L 3795 1287 L 3795 1288 L 3800 1293 L 3800 1294 L 3803 1297 L 3803 1298 L 3800 1301 L 3799 1301 L 3765 1267 L 3763 1267 L 3762 1268 L 3761 1268 L 3760 1269 L 3758 1269 L 3757 1270 L 3756 1270 L 3755 1271 L 3753 1271 L 3752 1270 L 3752 1269 L 3753 1268 L 3754 1268 L 3755 1267 L 3755 1264 L 3754 1263 L 3754 1262 L 3753 1261 L 3753 1260 L 3755 1258 L 3755 1257 L 3757 1255 L 3757 1254 L 3760 1251 L 3760 1250 Z" fill="white" id="region_053" stroke="black" stroke-width="0.5" /><path d="M 683 259 L 683 315 L 691 315 L 691 312 L 692 311 L 716 311 L 717 312 L 717 341 L 726 341 L 726 312 L 727 311 L 763 311 L 763 304 L 692 304 L 691 303 L 691 261 L 692 260 L 692 259 Z" fill="white" id="region_054" stroke="black" stroke-width="0.5" /><path d="M 4436 365 L 4437 365 L 4438 366 L 4438 367 L 4439 368 L 4439 369 L 4440 370 L 4440 371 L 4442 373 L 4442 374 L 4443 375 L 4443 376 L 4444 377 L 4444 378 L 4446 380 L 4446 381 L 4447 382 L 4447 383 L 4448 384 L 4448 385 L 4449 386 L 4449 387 L 4451 389 L 4451 390 L 4452 391 L 4452 392 L 4453 393 L 4453 394 L 4454 395 L 4454 396 L 4456 398 L 4456 399 L 4457 400 L 4457 401 L 4458 402 L 4458 403 L 4459 404 L 4459 405 L 4461 407 L 4461 408 L 4462 409 L 4462 410 L 4463 411 L 4463 412 L 4465 414 L 4465 415 L 4466 416 L 4466 417 L 4467 418 L 4467 419 L 4468 420 L 4468 421 L 4469 422 L 4469 424 L 4467 426 L 4467 427 L 4461 433 L 4459 433 L 4456 430 L 4456 429 L 4454 427 L 4454 426 L 4452 424 L 4452 423 L 4450 421 L 4450 420 L 4448 418 L 4448 417 L 4446 415 L 4446 414 L 4444 412 L 4444 411 L 4441 408 L 4441 407 L 4439 405 L 4439 404 L 4437 402 L 4437 401 L 4435 399 L 4435 398 L 4433 396 L 4433 395 L 4431 393 L 4431 392 L 4429 390 L 4429 389 L 4426 386 L 4426 385 L 4424 383 L 4424 382 L 4422 380 L 4422 379 L 4421 378 L 4421 376 L 4423 374 L 4424 374 L 4426 372 L 4427 372 L 4429 370 L 4430 370 L 4433 367 L 4434 367 Z" fill="white" id="region_055" stroke="black" stroke-width="0.5" /><path d="M 4411 3305 L 4411 3307 L 4413 3307 L 4414 3308 L 4414 3315 L 4412 3317 L 4410 3317 L 4411 3318 L 4411 3320 L 4412 3319 L 4414 3319 L 4415 3318 L 4417 3318 L 4418 3317 L 4420 3317 L 4421 3318 L 4421 3321 L 4434 3321 L 4434 3319 L 4435 3318 L 4436 3318 L 4437 3319 L 4437 3322 L 4440 3322 L 4441 3321 L 4456 3321 L 4457 3322 L 4459 3322 L 4459 3299 L 4437 3299 L 4437 3315 L 4436 3316 L 4435 3316 L 4433 3314 L 4433 3313 L 4434 3312 L 4434 3302 L 4433 3302 L 4432 3303 L 4429 3303 L 4428 3302 L 4428 3298 L 4426 3298 L 4426 3303 L 4425 3304 L 4424 3304 L 4423 3303 L 4423 3300 L 4421 3300 L 4421 3305 L 4420 3306 L 4419 3306 L 4418 3305 L 4417 3305 L 4416 3304 L 4416 3299 L 4414 3299 L 4414 3304 L 4413 3305 Z" fill="white" id="region_056" stroke="black" stroke-width="0.5" /><path d="M 3713 2062 L 3710 2062 L 3708 2064 L 3707 2064 L 3700 2071 L 3699 2071 L 3698 2072 L 3697 2072 L 3696 2073 L 3696 2074 L 3695 2075 L 3695 2076 L 3696 2077 L 3696 2079 L 3698 2081 L 3698 2082 L 3700 2084 L 3700 2085 L 3703 2088 L 3703 2089 L 3705 2091 L 3705 2098 L 3706 2099 L 3706 2103 L 3707 2104 L 3707 2105 L 3712 2105 L 3718 2099 L 3718 2098 L 3721 2095 L 3721 2094 L 3724 2091 L 3724 2090 L 3725 2089 L 3725 2088 L 3727 2086 L 3727 2085 L 3728 2084 L 3728 2082 L 3729 2081 L 3729 2078 L 3727 2076 L 3726 2076 L 3723 2073 L 3722 2073 L 3719 2070 L 3718 2070 L 3717 2069 L 3717 2068 L 3716 2067 L 3716 2066 L 3715 2065 L 3715 2064 Z" fill="white" id="region_057" stroke="black" stroke-width="0.5" /><path d="M 499 305 L 499 312 L 532 312 L 533 313 L 533 332 L 532 333 L 524 333 L 524 338 L 525 339 L 525 341 L 538 341 L 540 339 L 540 313 L 541 312 L 573 312 L 573 305 Z" fill="white" id="region_058" stroke="black" stroke-width="0.5" /><path d="M 4583 298 L 4583 295 L 4584 294 L 4584 293 L 4585 292 L 4585 291 L 4586 290 L 4586 289 L 4588 287 L 4588 286 L 4590 284 L 4595 284 L 4596 283 L 4602 283 L 4603 284 L 4603 285 L 4602 286 L 4602 287 L 4601 288 L 4601 290 L 4600 291 L 4601 292 L 4601 293 L 4610 293 L 4611 292 L 4622 292 L 4623 291 L 4634 291 L 4635 292 L 4635 296 L 4634 297 L 4632 297 L 4631 298 L 4620 298 L 4619 299 L 4608 299 L 4607 300 L 4602 300 L 4601 301 L 4601 304 L 4602 305 L 4602 309 L 4603 310 L 4603 315 L 4602 316 L 4591 316 L 4590 317 L 4589 317 L 4587 315 L 4587 312 L 4586 311 L 4586 309 L 4585 308 L 4585 305 L 4584 304 L 4584 299 Z" fill="white" id="region_059" stroke="black" stroke-width="0.5" /><path d="M 608 258 L 598 258 L 598 307 L 597 308 L 597 314 L 596 315 L 596 317 L 595 318 L 595 320 L 594 321 L 594 322 L 593 323 L 593 324 L 592 325 L 592 326 L 587 331 L 587 333 L 588 333 L 591 336 L 592 336 L 594 338 L 596 336 L 596 335 L 599 332 L 599 331 L 601 329 L 601 328 L 602 327 L 602 326 L 603 325 L 603 324 L 604 323 L 604 321 L 605 320 L 605 317 L 606 316 L 606 309 L 607 308 L 607 261 L 608 260 Z" fill="white" id="region_060" stroke="black" stroke-width="0.5" /><path d="M 657 257 L 657 338 L 666 338 L 666 260 L 667 259 L 667 257 Z" fill="white" id="region_061" stroke="black" stroke-width="0.5" /><path d="M 4537 3301 L 4528 3301 L 4527 3300 L 4527 3298 L 4525 3298 L 4525 3300 L 4524 3301 L 4515 3301 L 4515 3315 L 4514 3316 L 4514 3319 L 4513 3320 L 4512 3320 L 4511 3319 L 4511 3299 L 4489 3299 L 4489 3322 L 4491 3322 L 4491 3310 L 4492 3309 L 4508 3309 L 4509 3310 L 4509 3317 L 4508 3318 L 4508 3319 L 4507 3320 L 4505 3320 L 4505 3322 L 4510 3322 L 4510 3321 L 4511 3320 L 4512 3320 L 4514 3322 L 4515 3322 L 4516 3321 L 4516 3319 L 4517 3318 L 4518 3318 L 4519 3319 L 4519 3322 L 4521 3322 L 4522 3321 L 4532 3321 L 4533 3322 L 4536 3322 L 4536 3312 L 4528 3312 L 4527 3311 L 4527 3310 L 4528 3309 L 4537 3309 L 4537 3307 L 4528 3307 L 4527 3306 L 4527 3304 L 4528 3303 L 4537 3303 Z" fill="white" id="region_062" stroke="black" stroke-width="0.5" /><path d="M 4569 3311 L 4569 3319 L 4570 3320 L 4570 3321 L 4571 3322 L 4572 3322 L 4573 3323 L 4583 3323 L 4583 3317 L 4584 3316 L 4585 3316 L 4586 3317 L 4586 3318 L 4587 3319 L 4587 3320 L 4590 3323 L 4600 3323 L 4601 3322 L 4601 3317 L 4602 3316 L 4603 3316 L 4604 3317 L 4604 3323 L 4608 3323 L 4608 3312 L 4610 3310 L 4611 3310 L 4613 3312 L 4613 3323 L 4616 3323 L 4616 3313 L 4619 3310 L 4620 3310 L 4621 3311 L 4621 3323 L 4625 3323 L 4625 3310 L 4624 3309 L 4624 3308 L 4623 3308 L 4622 3307 L 4617 3307 L 4616 3308 L 4615 3308 L 4614 3307 L 4604 3307 L 4604 3313 L 4603 3314 L 4602 3314 L 4601 3313 L 4601 3310 L 4599 3308 L 4598 3308 L 4597 3307 L 4590 3307 L 4587 3310 L 4587 3311 L 4586 3312 L 4585 3312 L 4583 3310 L 4583 3309 L 4582 3308 L 4581 3308 L 4580 3307 L 4573 3307 L 4572 3308 L 4571 3308 L 4571 3309 Z" fill="white" id="region_063" stroke="black" stroke-width="0.5" /><path d="M 3779 2020 L 3776 2017 L 3772 2017 L 3768 2021 L 3767 2021 L 3766 2022 L 3761 2022 L 3760 2021 L 3758 2021 L 3757 2020 L 3754 2020 L 3753 2019 L 3752 2019 L 3751 2020 L 3750 2020 L 3749 2021 L 3749 2022 L 3748 2023 L 3748 2026 L 3749 2027 L 3749 2028 L 3750 2029 L 3750 2032 L 3749 2033 L 3749 2036 L 3750 2037 L 3750 2039 L 3753 2042 L 3754 2042 L 3755 2043 L 3756 2043 L 3757 2044 L 3770 2044 L 3773 2041 L 3773 2040 L 3774 2039 L 3774 2037 L 3775 2036 L 3775 2035 L 3776 2034 L 3776 2033 L 3779 2030 L 3779 2028 L 3780 2027 L 3780 2022 L 3779 2021 Z" fill="white" id="region_064" stroke="black" stroke-width="0.5" /><path d="M 834 374 L 833 375 L 832 375 L 828 379 L 828 380 L 827 381 L 827 384 L 826 385 L 826 400 L 827 401 L 827 403 L 828 404 L 828 405 L 829 406 L 829 407 L 832 410 L 833 410 L 834 411 L 838 411 L 840 409 L 841 409 L 842 408 L 842 407 L 844 405 L 844 403 L 845 402 L 845 399 L 846 398 L 846 387 L 845 386 L 845 382 L 844 381 L 844 380 L 843 379 L 843 378 L 840 375 L 838 375 L 837 374 Z" fill="white" id="region_065" stroke="black" stroke-width="0.5" /><path d="M 659 478 L 658 479 L 657 479 L 655 481 L 655 482 L 654 483 L 654 484 L 653 485 L 653 487 L 652 488 L 652 504 L 653 505 L 653 507 L 654 508 L 654 509 L 656 511 L 656 512 L 657 513 L 658 513 L 659 514 L 665 514 L 669 510 L 669 509 L 670 508 L 670 507 L 671 506 L 671 502 L 672 501 L 672 490 L 671 489 L 671 486 L 670 485 L 670 483 L 665 478 Z" fill="white" id="region_066" stroke="black" stroke-width="0.5" /><path d="M 635 478 L 634 479 L 633 479 L 631 481 L 631 482 L 630 483 L 630 484 L 629 485 L 629 487 L 628 488 L 628 504 L 629 505 L 629 507 L 630 508 L 630 509 L 632 511 L 632 512 L 633 513 L 634 513 L 635 514 L 641 514 L 645 510 L 645 509 L 646 508 L 646 507 L 647 506 L 647 502 L 648 501 L 648 490 L 647 489 L 647 486 L 646 485 L 646 483 L 641 478 Z" fill="white" id="region_067" stroke="black" stroke-width="0.5" /><path d="M 312 374 L 311 375 L 310 375 L 309 376 L 308 376 L 306 378 L 306 379 L 305 380 L 305 382 L 304 383 L 304 387 L 303 388 L 303 397 L 304 398 L 304 402 L 305 403 L 305 405 L 308 408 L 308 409 L 309 409 L 310 410 L 311 410 L 312 411 L 315 411 L 316 410 L 317 410 L 321 406 L 321 405 L 322 404 L 322 402 L 323 401 L 323 384 L 322 383 L 322 381 L 321 380 L 321 379 L 317 375 L 316 375 L 315 374 Z" fill="white" id="region_068" stroke="black" stroke-width="0.5" /><path d="M 611 478 L 607 482 L 607 483 L 606 484 L 606 485 L 605 486 L 605 490 L 604 491 L 604 500 L 605 501 L 605 505 L 606 506 L 606 508 L 607 509 L 607 510 L 611 514 L 617 514 L 618 513 L 619 513 L 621 511 L 621 510 L 622 509 L 622 508 L 623 507 L 623 505 L 624 504 L 624 488 L 623 487 L 623 484 L 621 482 L 621 481 L 619 479 L 618 479 L 617 478 Z" fill="white" id="region_069" stroke="black" stroke-width="0.5" /><path d="M 550 478 L 546 482 L 546 483 L 545 484 L 545 485 L 544 486 L 544 490 L 543 491 L 543 500 L 544 501 L 544 505 L 545 506 L 545 508 L 546 509 L 546 510 L 550 514 L 556 514 L 557 513 L 558 513 L 560 511 L 560 510 L 561 509 L 561 508 L 562 507 L 562 505 L 563 504 L 563 488 L 562 487 L 562 484 L 560 482 L 560 481 L 558 479 L 557 479 L 556 478 Z" fill="white" id="region_070" stroke="black" stroke-width="0.5" /><path d="M 627 262 L 627 328 L 636 328 L 636 266 L 638 264 L 638 263 L 637 263 L 636 262 Z" fill="white" id="region_071" stroke="black" stroke-width="0.5" /></svg>